HIERARCHY
ROOT Hips
{
	OFFSET -14.64140 90.27770 -84.91600
	CHANNELS 6 Xposition Yposition Zposition Zrotation Xrotation Yrotation
	JOINT Spine
	{
		OFFSET 0.00000 13.20850 -1.60436
		CHANNELS 3 Zrotation Xrotation Yrotation
		JOINT Spine1
		{
			OFFSET 0.00000 8.61716 0.00000
			CHANNELS 3 Zrotation Xrotation Yrotation
			JOINT Spine2
			{
				OFFSET 0.00000 8.61717 0.00000
				CHANNELS 3 Zrotation Xrotation Yrotation
				JOINT Spine3
				{
					OFFSET 0.00000 8.61717 0.00000
					CHANNELS 3 Zrotation Xrotation Yrotation
					JOINT Neck
					{
						OFFSET 0.00000 11.07920 1.10792
						CHANNELS 3 Zrotation Xrotation Yrotation
						JOINT Neck1
						{
							OFFSET 0.00000 7.08032 0.00000
							CHANNELS 3 Zrotation Xrotation Yrotation
							JOINT Head
							{
								OFFSET 0.00000 7.08031 0.00000
								CHANNELS 3 Zrotation Xrotation Yrotation
								End site
								{
									OFFSET 0.00000 0.00000 0.00000
								}
							}
						}
					}
					JOINT RightShoulder
					{
						OFFSET -0.01000 7.91373 5.19711
						CHANNELS 3 Zrotation Xrotation Yrotation
						JOINT RightArm
						{
							OFFSET -18.41580 0.00000 0.00000
							CHANNELS 3 Zrotation Xrotation Yrotation
							JOINT RightForeArm
							{
								OFFSET -29.11090 0.00000 0.00000
								CHANNELS 3 Zrotation Xrotation Yrotation
								JOINT RightHand
								{
									OFFSET -24.65040 0.00000 0.00000
									CHANNELS 3 Zrotation Xrotation Yrotation
									JOINT RightHandThumb1
									{
										OFFSET -5.35114 -0.85590 3.97906
										CHANNELS 3 Zrotation Xrotation Yrotation
										JOINT RightHandThumb2
										{
											OFFSET -4.52789 0.00000 0.00000
											CHANNELS 3 Zrotation Xrotation Yrotation
											JOINT RightHandThumb3
											{
												OFFSET -2.46976 0.00000 0.00000
												CHANNELS 3 Zrotation Xrotation Yrotation
												End site
												{
													OFFSET 0.00000 0.00000 0.00000
												}
											}
										}
									}
									JOINT RightHandIndex1
									{
										OFFSET -14.26970 0.00000 2.88139
										CHANNELS 3 Zrotation Xrotation Yrotation
										JOINT RightHandIndex2
										{
											OFFSET -5.48836 0.00000 0.00000
											CHANNELS 3 Zrotation Xrotation Yrotation
											JOINT RightHandIndex3
											{
												OFFSET -3.01859 0.00000 0.00000
												CHANNELS 3 Zrotation Xrotation Yrotation
												End site
												{
													OFFSET 0.00000 0.00000 0.00000
												}
											}
										}
									}
									JOINT RightHandMiddle1
									{
										OFFSET -14.26970 0.00000 -0.09147
										CHANNELS 3 Zrotation Xrotation Yrotation
										JOINT RightHandMiddle2
										{
											OFFSET -6.17441 0.00000 0.00000
											CHANNELS 3 Zrotation Xrotation Yrotation
											JOINT RightHandMiddle3
											{
												OFFSET -3.56743 0.00000 0.00000
												CHANNELS 3 Zrotation Xrotation Yrotation
												End site
												{
													OFFSET 0.00000 0.00000 0.00000
												}
											}
										}
									}
									JOINT RightHandRing1
									{
										OFFSET -12.69180 0.00000 -3.06433
										CHANNELS 3 Zrotation Xrotation Yrotation
										JOINT RightHandRing2
										{
											OFFSET -5.62556 0.00000 0.00000
											CHANNELS 3 Zrotation Xrotation Yrotation
											JOINT RightHandRing3
											{
												OFFSET -3.56744 0.00000 0.00000
												CHANNELS 3 Zrotation Xrotation Yrotation
												End site
												{
													OFFSET 0.00000 0.00000 0.00000
												}
											}
										}
									}
									JOINT RightHandPinky1
									{
										OFFSET -11.11390 0.00000 -6.03719
										CHANNELS 3 Zrotation Xrotation Yrotation
										JOINT RightHandPinky2
										{
											OFFSET -4.52789 0.00000 0.00000
											CHANNELS 3 Zrotation Xrotation Yrotation
											JOINT RightHandPinky3
											{
												OFFSET -2.46976 0.00000 0.00000
												CHANNELS 3 Zrotation Xrotation Yrotation
												End site
												{
													OFFSET 0.00000 0.00000 0.00000
												}
											}
										}
									}
								}
							}
						}
					}
					JOINT LeftShoulder
					{
						OFFSET 0.01000 7.91373 5.19711
						CHANNELS 3 Zrotation Xrotation Yrotation
						JOINT LeftArm
						{
							OFFSET 18.41580 0.00000 0.00000
							CHANNELS 3 Zrotation Xrotation Yrotation
							JOINT LeftForeArm
							{
								OFFSET 29.11090 0.00000 0.00000
								CHANNELS 3 Zrotation Xrotation Yrotation
								JOINT LeftHand
								{
									OFFSET 24.65040 0.00000 0.00000
									CHANNELS 3 Zrotation Xrotation Yrotation
									JOINT LeftHandThumb1
									{
										OFFSET 5.35114 -0.85590 3.97906
										CHANNELS 3 Zrotation Xrotation Yrotation
										JOINT LeftHandThumb2
										{
											OFFSET 4.52789 0.00000 0.00000
											CHANNELS 3 Zrotation Xrotation Yrotation
											JOINT LeftHandThumb3
											{
												OFFSET 2.46977 0.00000 0.00000
												CHANNELS 3 Zrotation Xrotation Yrotation
												End site
												{
													OFFSET 0.00000 0.00000 0.00000
												}
											}
										}
									}
									JOINT LeftHandIndex1
									{
										OFFSET 14.26970 0.00000 2.88139
										CHANNELS 3 Zrotation Xrotation Yrotation
										JOINT LeftHandIndex2
										{
											OFFSET 5.48836 0.00000 0.00000
											CHANNELS 3 Zrotation Xrotation Yrotation
											JOINT LeftHandIndex3
											{
												OFFSET 3.01859 0.00000 0.00000
												CHANNELS 3 Zrotation Xrotation Yrotation
												End site
												{
													OFFSET 0.00000 0.00000 0.00000
												}
											}
										}
									}
									JOINT LeftHandMiddle1
									{
										OFFSET 14.26970 0.00000 -0.09147
										CHANNELS 3 Zrotation Xrotation Yrotation
										JOINT LeftHandMiddle2
										{
											OFFSET 6.17440 0.00000 0.00000
											CHANNELS 3 Zrotation Xrotation Yrotation
											JOINT LeftHandMiddle3
											{
												OFFSET 3.56744 0.00000 0.00000
												CHANNELS 3 Zrotation Xrotation Yrotation
												End site
												{
													OFFSET 0.00000 0.00000 0.00000
												}
											}
										}
									}
									JOINT LeftHandRing1
									{
										OFFSET 12.69180 0.00000 -3.06433
										CHANNELS 3 Zrotation Xrotation Yrotation
										JOINT LeftHandRing2
										{
											OFFSET 5.62556 0.00000 0.00000
											CHANNELS 3 Zrotation Xrotation Yrotation
											JOINT LeftHandRing3
											{
												OFFSET 3.56744 0.00000 0.00000
												CHANNELS 3 Zrotation Xrotation Yrotation
												End site
												{
													OFFSET 0.00000 0.00000 0.00000
												}
											}
										}
									}
									JOINT LeftHandPinky1
									{
										OFFSET 11.11390 0.00000 -6.03719
										CHANNELS 3 Zrotation Xrotation Yrotation
										JOINT LeftHandPinky2
										{
											OFFSET 4.52789 0.00000 0.00000
											CHANNELS 3 Zrotation Xrotation Yrotation
											JOINT LeftHandPinky3
											{
												OFFSET 2.46976 0.00000 0.00000
												CHANNELS 3 Zrotation Xrotation Yrotation
												End site
												{
													OFFSET 0.00000 0.00000 0.00000
												}
											}
										}
									}
								}
							}
						}
					}
					JOINT pCube4
					{
						OFFSET 0.00000 10.91090 1.10792
						CHANNELS 3 Zrotation Xrotation Yrotation
						End site
						{
							OFFSET 0.00000 0.00000 0.00000
						}
					}
				}
			}
		}
	}
	JOINT RightUpLeg
	{
		OFFSET -9.98441 0.00000 0.00000
		CHANNELS 3 Zrotation Xrotation Yrotation
		JOINT RightLeg
		{
			OFFSET 0.00000 -42.11790 0.00000
			CHANNELS 3 Zrotation Xrotation Yrotation
			JOINT RightFoot
			{
				OFFSET 0.00000 -45.00020 -0.00001
				CHANNELS 3 Zrotation Xrotation Yrotation
				JOINT RightForeFoot
				{
					OFFSET 0.00000 -3.74820 0.00000
					CHANNELS 3 Zrotation Xrotation Yrotation
					JOINT RightToeBase
					{
						OFFSET 0.00000 0.06325 14.43120
						CHANNELS 3 Zrotation Xrotation Yrotation
						End site
						{
							OFFSET 0.00000 0.00000 0.00000
						}
					}
				}
			}
		}
	}
	JOINT LeftUpLeg
	{
		OFFSET 9.98441 0.00000 0.00000
		CHANNELS 3 Zrotation Xrotation Yrotation
		JOINT LeftLeg
		{
			OFFSET 0.00000 -42.11800 0.00000
			CHANNELS 3 Zrotation Xrotation Yrotation
			JOINT LeftFoot
			{
				OFFSET 0.00000 -45.00070 0.00000
				CHANNELS 3 Zrotation Xrotation Yrotation
				JOINT LeftForeFoot
				{
					OFFSET 0.00000 -3.74824 0.00000
					CHANNELS 3 Zrotation Xrotation Yrotation
					JOINT LeftToeBase
					{
						OFFSET 0.00000 0.06325 14.43110
						CHANNELS 3 Zrotation Xrotation Yrotation
						End site
						{
							OFFSET 0.00000 0.00000 0.00000
						}
					}
				}
			}
		}
	}
}
MOTION
Frames: 4
Frame Time: 0.050000
0.04174498685551737 0.009626774838280217 -0.04292029456136438 -0.01776661516145136 -0.007308618197719843 0.032611976281726955 -3.971801138043922 -0.2563611014597182 -0.6535988231428443 -0.9862097044921563 3.5183643997846423 0.3450201067160204 -1.367472945533659 -2.3278633955014563 -0.9264043291320619 -0.5636244213981412 0.06383597374815492 -0.7746516617479422 0.4273206279967458 12.7411837573916 0.1843466571145567 0.09616958246385787 -0.03237057113818425 -1.1641836659418232 0.13937840634128024 -14.90814968174726 -0.07177685427809895 -6.946202322379795 2.539352884360279 -13.783948545069409 68.54643366983369 0.11349919566457811 23.172645581331285 42.01998763288211 10.97268972909337 92.23724234943884 23.465027181801016 -0.3760119516149317 -5.457730519558756 4.553382540273298 -0.15350664999032246 -1.569543024143028 -0.04589318183218372 0.045250935877067876 -56.20202394008934 -0.004039153374721674 0.0068455843281996715 -56.250367611169736 -38.7696628168281 -0.0007565329180101697 0.03676041174361705 -0.014161009829892858 0.004410038828799806 -0.0011997451055566872 -0.010115871364212225 -0.039921642365339065 -0.04350348952670441 -36.74207928096981 -0.03597342020201163 -0.030535027842637643 0.03622860191439831 0.037240268698877664 -0.011512655918873708 -0.03410428881209909 0.028127957410823547 -0.00562920434560433 -19.7189490362546 0.021384122469251324 -0.03665769258274033 0.022079460642570777 -0.027044067521358475 0.022188683337539383 0.04397129212992126 -0.0301949493769603 0.044614452913142054 24.036235900672573 0.030310598202515263 -0.014952293408991306 28.825852673402338 0.04162151437086858 0.015158255814537898 28.835402988813964 -0.03078432477388381 -0.014456871905626372 4.9861729344305505 1.2523085846274584 11.523416660729051 -67.91005332126898 28.401014075377983 -7.199785963296532 -2.6694229580487074 -2.614101045465974 -49.07495494088262 -15.794578319552476 3.254715637499137 0.8667531553036162 -0.4746599391003092 0.042388875884657354 -8.095836439196358 0.03256945949612475 0.00801250717370741 44.57074251886111 0.006829176601568766 0.030391482276983565 44.60478894085691 12.41445083330806 0.010140446937620303 0.013033598528545428 0.018724173736882628 -0.00039835649277339787 0.016219531715339762 0.00717648597814723 -0.010448204086193265 -0.04217111033939086 11.099664234585546 -0.015947610625716254 -0.04843734580493208 0.011636128539405446 0.02055749299208884 0.024284377048304537 0.01680009187463329 0.016622990814575807 0.012355253386485963 4.752978007138785 -0.015877373517124007 -0.04652776977942914 0.016262719199314365 0.03501870137221823 0.042924429627970564 0.02840508399897511 -0.014925833760567985 -0.015747321318242614 -5.612028173728782 0.03677369705640702 0.0011371446631719764 -6.711177089920342 -0.02495218165020073 0.0023819796128570275 -6.708454812524523 -0.030590380038554688 0.013508164945065453 0.008300743125433344 -0.04770118414480229 -0.019775782018063452 8.073694541073133 3.456849155982758 -19.252756114439467 -0.028349243350981594 10.377079291704145 0.010766467771746197 -5.627457894359704 -15.675067829075973 3.155458994726329 0.031825209143387 -0.0027160413055738056 0.03756021128384992 0.018380744770492372 4.703113103866822 0.0008746355171154101 12.451412652146773 -8.259122938801518 6.920926456852842 0.013959189728270338 46.4044898437353 -0.025289034261808327 -4.283852158599295 -14.75037375852798 -3.8691907592009525 0.039808427271052514 -0.00909930187104762 0.02494631919237995 0.021285743136863797 -10.78400234855406 -0.01295062461514891 
-0.03227132511470862 -0.01147476903705384 -0.01331844197400569 0.048719926986344544 -0.040874179505088884 -0.019151770057977996 -3.852448810748366 -0.3469391447224246 -0.6291212412914094 -0.9066259734961097 3.542817839640166 0.3905521576341816 -1.471782248690622 -2.325573257604125 -0.8265340991394312 -0.4448530876811862 -0.014400413207904333 -0.7741894371351032 0.4807621233109464 12.681367538350903 0.1238853096793458 0.17329872423421186 -0.010080437916855983 -1.4467059811266645 0.219678905262939 -14.866325790709121 -0.09904086270162635 -6.831202287931251 2.529522946221018 -13.966631347231553 68.08426057968835 -0.5559197759971892 22.365407611090024 43.08053701603632 11.039892497809491 91.71059008399519 23.026144616736584 -0.3991869711922558 -5.4725744327822765 4.54572638442909 -0.13797714323446636 -1.6061828523899402 0.0151941818740118 0.0008188494663490503 -56.18789731571185 0.03746834595213099 0.004167996509097938 -56.228932690810424 -38.73480360420807 -0.02316547729037783 0.0460255710319201 0.012123234825786922 -0.036289751113116525 -0.013159024706382041 -0.040687403557149705 -0.01782237843034896 0.020564663257012533 -36.67600933359042 0.025494342176168888 -0.03859602837392852 0.014555156231172577 -0.016473004412889007 -0.010343671176219614 0.03721015952824795 -0.029820138197664808 0.04948093412460638 -19.7401798852245 0.04283633912450224 -0.009708673911956919 -0.018630589124147157 -0.03234311637098458 0.019794049949839753 0.011820307980885885 -0.005404414282920824 -0.04519806845874045 24.056722319453836 -0.012268569349227959 -0.011669019566393511 28.890044581558506 0.0025569747143444365 -0.006175823009477693 28.914022899137215 -0.03514997666617611 0.017464029782516346 4.676440289356476 1.177251782982647 11.616848066481818 -68.80672119082371 28.453895921358924 -5.643860222319931 -2.9106600355300833 -2.7606745936790054 -46.65557180987608 -15.550991747820069 3.9475217301782264 0.32610941865428433 -0.5226238473547875 0.03642874264228037 -8.093586293564492 0.004146795523174228 0.008452250255259388 44.57606739143558 0.008498761596159704 -0.02249625526132992 44.525578669024796 12.440276110939834 0.011894363706541388 0.010897224924684108 0.03862994832319746 0.027814533227834733 0.04376296643968155 0.008868933521756656 0.016658389482099193 -0.028268625770808326 11.063603897514557 -0.04106557894030062 -0.029173268646265314 0.008592953222844861 -0.01890095349001628 0.011648437302442312 0.025706463379374968 -0.039039694994318606 0.026944359664558677 4.766747851608558 -0.020900802778682635 0.03927806066039141 0.0302865803606162 -0.037420521399832186 0.04317873513728186 -0.049805055180036244 0.008303754298166554 0.04768080821303075 -5.641345300210091 -0.02883632214063637 -0.01499324439312766 -6.707096381417781 0.03164509410390383 0.0011760055646502017 -6.707603177240715 -0.017309701393467755 0.03705093705932702 0.014762881426227248 -0.032863260353252634 -0.03658487845316391 8.014191996279248 3.4513233902334917 -19.204616824010184 -0.002183820930439534 10.37836661176014 -0.008724327491156703 -5.650996890326169 -15.670011111112295 3.160094025298666 0.03661208339112261 0.021252308073438496 0.009091165461182311 0.027069663406138762 4.70429711586021 -0.013931912895416596 12.444748968575848 -8.232216479134234 6.845047071309433 0.005720437285092287 46.390483634399345 -0.01892992986079059 -4.3074958912897285 -14.75510915030801 -3.7971577071460287 0.017984004497759387 0.007464504590748652 -0.022921189093002562 -0.03200652565015314 -10.726162171264448 0.02211390969855739 
0.005474697260886901 0.008756253190384956 -0.007640290632488486 0.0029726072051235487 -0.03465103079128898 0.013822137774651778 -3.8363564237328083 -0.6049735721578081 -0.6237015983123426 -0.9344755163925564 3.5054244677546236 0.37171188455615856 -1.4307163724377532 -2.336734896777773 -0.8562755636742138 -0.4259906554739682 0.005693432282615377 -0.787399462008169 0.5131790540611383 12.67426542769782 0.014918983149546684 0.18194530682360896 0.004987968242676572 -1.577063861137259 0.21019050255726213 -14.705264883763165 -0.14641172566843036 -6.810458754829178 2.482078824214328 -14.129806318904855 67.60175359182786 -1.2885982279772124 21.406663578150454 43.399751803288815 11.122523744730863 91.08338151389725 22.623669648292125 -0.43737826867083784 -5.455790358315579 4.514939550100152 -0.1293207016624601 -1.5884195894756599 -0.020150988426373972 0.02308022401136157 -56.22987257853582 -0.014926283821376325 -0.02758134577525876 -56.21898689003035 -38.74360611604509 0.005226947134892253 0.008773298699634632 -0.044346363712002464 -0.0210710456069818 -0.04850115214581046 0.010504494171412419 0.01149750800500014 -0.018134316761026024 -36.65336083984133 0.028326761055368063 -0.01895310276280456 0.03210937057630806 0.012405647839224645 -0.013839229383796125 -0.01012248052229139 0.04024691993230056 -0.008504718834675823 -19.781055691478134 0.009742713445630822 0.024586832030036993 -0.010622909478241455 0.04973677203902629 0.01886052997942167 -0.02612668634768012 0.005612615300288983 0.011316108843355337 24.08725741746564 -0.01992992331601664 -0.0009750946448579147 28.90545025873012 0.0030055983189639685 0.002631689059025264 28.869580574610655 0.03787314921157439 -0.004388295118609973 4.445789072827725 1.1784801943824832 11.722183866771923 -69.107667604241 28.47590063946711 -4.540382383462906 -3.073070343591678 -2.8867253629545426 -44.93782922578884 -15.336135613319929 4.319431116287975 0.009542365500477568 -0.4526633860419556 0.059043449622948885 -8.12377530947937 -9.925413839306457e-05 0.005095624111664641 44.61061322746071 -0.006941932584755222 0.03639094709125083 44.6062639744349 12.47479860393607 0.037149945877407366 0.01546045522442505 -0.04384003491953101 0.04261802367730568 -0.028926121427167488 0.019512828744327956 -0.03646563838403661 -0.006315665253185658 11.085311301705776 -0.00674046226926123 0.010792836257890058 -0.00876848338962345 -0.008227608941895014 0.03368077564703687 0.028943368134796976 0.04610911949449712 0.047155371563288445 4.744667939868844 0.014994837427059482 0.009995765298069805 0.0027708963010939437 -0.04411418537703124 -0.04158213670914652 0.006067564339119451 -0.008886613041918762 -0.026593454780521563 -5.636435789148783 -0.03980718957008319 0.007695963150381034 -6.687452899228041 -0.025971426297481174 -0.02802549495753376 -6.764282356245334 0.03778023543511548 -0.02671581657429029 0.023925108193687285 0.03244438333954686 -0.026284753693730626 8.049730085080189 3.46279193167852 -19.24192835266341 0.025504711528262516 10.404720307834195 0.051041991693564895 -5.574058643635479 -15.610752304281784 3.1692316305844694 0.0391291277557241 -0.024894936221697427 -0.009336371420212505 0.0019514633890071386 4.677404777146223 -0.027415992198508023 12.488436290367357 -8.224262694461506 6.870282897648518 -0.047237525104518036 46.42059249884524 -0.00451274349202183 -4.3528993401206995 -14.747466518968418 -3.8192158137989285 0.0251478018270717 -0.0031950398760597527 0.003241143876500729 -0.008152729277681623 -10.725038993632904 0.04057124958684646 
0.03703506221181634 -0.03452065654861154 -9.992689491317513e-05 0.016450929816719136 0.002173158222602061 -0.014014890821871998 -3.8212933867017385 -0.638103533565603 -0.6921593661817675 -0.9638940927563461 3.5114426462305808 0.42096018239322014 -1.4481738321089546 -2.3516803832574977 -0.8489621880370976 -0.41151462522330073 0.004392063419795707 -0.8051848754320923 0.5810289019930314 12.733755336849612 -0.08931392478638882 0.1292696327680109 0.12378633094098028 -1.663433531893343 0.2824045157720116 -14.570732052200828 -0.10284715528684417 -6.745756483520253 2.4329211510720516 -14.200637462799492 67.03123808345833 -1.9641026332720244 20.695360162356398 42.784997964673835 11.018458158447377 90.3339368220972 22.245038588670766 -0.4397358594666753 -5.428895152761543 4.503032978939809 -0.1152447663817423 -1.604208950453209 0.03005870477224846 0.022279772298651336 -56.19908696592724 -0.030130858296823416 -0.03650833315508556 -56.2317132982453 -38.73103682984279 0.023568908192584583 0.028393334303003222 0.026276405354885523 -0.014405225050775131 -0.015703625313429465 0.010823369287293829 -0.010677115863936826 0.0014680179563477565 -36.650932107951725 0.02208414196147508 0.0475763875728005 -0.043359813493381236 0.022784646384278483 -0.03879482146949179 -0.041151869208199715 -0.003423669552812924 0.030194637949990194 -19.78293164496531 -0.042333613227365924 0.02763966917290848 0.024507326643189026 0.035933725025266504 0.025319623534055508 0.0195068892955909 -0.040091101734590746 0.041776232659110964 24.03701973524712 -0.046981002964268784 0.008333714050540819 28.824681891682253 0.016379212397289313 0.012549824979154179 28.88151525890107 -0.049404456668154274 0.003824700291758361 4.290802852153376 1.1496724750741554 11.759654071243485 -69.1097503502076 28.271270438382874 -4.0759788053658585 -3.306014171956818 -3.1015407588603647 -44.2972801000175 -14.991272791917435 4.439362778949002 -0.06424060047511448 -0.5230693024946427 0.03989878284604565 -8.11800898358656 0.03347994988917827 -0.012131852815415161 44.600061136184806 0.04861650557378453 -0.036908111108623354 44.51989176397099 12.436247265126145 -0.014817165230755746 -0.004627782792199423 0.04876089931540395 -0.03649902955411585 -0.023799499875344517 -0.01574541907381839 -0.010348048020567513 -0.007868128296151624 11.134056153874464 0.04206642438919563 -0.0053115320408685975 0.0014132718246133741 0.04472197324844051 0.02880984180437776 -0.044790995993660036 -0.013094169498749654 0.02507835348137677 4.804173979157535 0.03990930601230389 -0.005399318357792548 -0.0021624371784645957 -0.02037067915189122 0.03077757806073603 -0.040837654173677435 0.0355584825340483 -0.025961033341991912 -5.597774645699904 -0.009877935736282628 -0.03633847940850847 -6.72422099316801 0.04590425317976232 0.03480706189096075 -6.769413294002515 -0.04999468385675445 0.04381658871940401 -0.007596666887412877 -0.016866435891198732 0.003887067917426856 8.086498012208601 3.5232301979126945 -19.221299451335085 -0.005100030720014917 10.374408522064794 0.058497145662962324 -5.646037430824182 -15.66858301950878 3.198581993265162 -0.006205841386867236 0.025070545628452748 -0.0333561382112071 -0.03002184106245929 4.7322969856316615 0.026456329792162687 12.450772157234848 -8.237046652207079 6.833789857224337 0.03855072797191922 46.36643644658927 0.023369326558344318 -4.34096600856936 -14.793905026627513 -3.8041887316830163 0.003799205853697743 0.04482873010300814 0.01292027946095732 -0.011947878456764113 -10.73582288014724 -0.030863366193903577 
